<?xml version="1.0" encoding="utf-8"?>
<!-- Generator: Adobe Illustrator 21.1.0, SVG Export Plug-In . SVG Version: 6.00 Build 0)  -->
<svg version="1.1" id="Layer_1" xmlns="http://www.w3.org/2000/svg" xmlns:xlink="http://www.w3.org/1999/xlink" x="0px" y="0px"
	 viewBox="0 0 85.1 26.1" style="enable-background:new 0 0 85.1 26.1;" xml:space="preserve">
<path d="M0,3.2C0,1.5,1.5,0,3.3,0C5,0,6.5,1.5,6.5,3.2C6.5,5,5,6.5,3.3,6.5C1.5,6.5,0,5,0,3.2z M0.6,8.1H6v18H0.6V8.1z"/>
<path d="M27.2,15v11.1h-5.4V15.8c0-2.2-1.4-3.3-3.1-3.3c-2,0-3.3,1.2-3.3,3.7v9.8H9.9v-18h5.4v1.7c1-1.3,2.8-2.2,5.1-2.2
	C24.1,7.6,27.2,10.2,27.2,15z"/>
<path d="M45.9,22.1h-9.4l-1.3,4h-6.3l8.6-25.2h7.3l8.6,25.2h-6.3L45.9,22.1z M44.1,16.7l-3-9.3l-3,9.3H44.1z"/>
<path d="M61.3,0.9v25.2h-5.8V0.9H61.3z"/>
<path d="M74.2,17.8h-2.7v8.3h-5.8V0.9h10.1c4.8,0,8.6,3.9,8.6,8.6c0,3.1-1.9,5.9-4.6,7.3l5.4,9.3h-6.2L74.2,17.8z M71.4,12.7h4.3
	c1.6,0,2.9-1.4,2.9-3.2c0-1.8-1.3-3.2-2.9-3.2h-4.3V12.7z"/>
</svg>
