<?xml version="1.0" encoding="utf-8"?>
<!-- Generator: Adobe Illustrator 22.0.1, SVG Export Plug-In . SVG Version: 6.00 Build 0)  -->
<svg version="1.1" id="레이어_1" xmlns="http://www.w3.org/2000/svg" xmlns:xlink="http://www.w3.org/1999/xlink" x="0px"
	 y="0px" viewBox="0 0 68 57" style="enable-background:new 0 0 68 57;" xml:space="preserve">
<path d="M9.7,54.9L27,42.3c1.8-1.3,2.6-3.4,2.5-5.5l3.9-2.8c6.8,6.8,17.8,7.9,25.8,2c8.9-6.5,10.8-19,4.4-27.8
	C57-0.7,44.5-2.7,35.6,3.8c-8,5.9-10.4,16.6-6,25.2l-3.9,2.8c-1.9-0.8-4.2-0.7-6,0.7L2.5,45.1c-2.7,2-3.3,5.8-1.3,8.5
	C3.2,56.3,7,56.9,9.7,54.9z M39.5,9.1c5.9-4.3,14.3-3,18.6,2.9c4.3,5.9,3,14.3-2.9,18.6c-5.9,4.3-14.3,3-18.6-2.9
	C32.2,21.8,33.5,13.5,39.5,9.1z"/>
</svg>
